<?xml version="1.0" standalone="no"?>
<!DOCTYPE svg PUBLIC "-//W3C//DTD SVG 20010904//EN"
 "http://www.w3.org/TR/2001/REC-SVG-20010904/DTD/svg10.dtd">
<svg version="1.0" xmlns="http://www.w3.org/2000/svg"
 width="209.000000pt" height="210.000000pt" viewBox="0 0 209.000000 210.000000"
 preserveAspectRatio="xMidYMid meet">

<g transform="translate(0.000000,210.000000) scale(0.100000,-0.100000)"
fill="#000000" stroke="none">
<path d="M1486 1912 c-3 -3 -6 -20 -6 -38 0 -20 -9 -44 -24 -61 l-24 -28 -152
-3 c-84 -2 -163 -1 -176 2 -13 4 -38 20 -55 37 l-31 30 -25 -23 c-13 -12 -33
-38 -45 -56 -18 -29 -19 -35 -5 -50 8 -9 12 -23 10 -29 -6 -16 -30 -17 -35 -3
-2 6 -28 14 -59 17 -51 5 -58 3 -73 -18 -9 -13 -16 -33 -16 -44 0 -28 -47
-125 -109 -223 l-51 -82 35 0 c33 0 35 2 35 36 0 45 12 67 67 127 35 38 42 51
33 62 -14 17 2 28 110 79 107 51 201 63 324 42 113 -19 192 -52 229 -95 27
-33 35 -61 17 -61 -19 0 -43 -111 -37 -171 6 -52 4 -60 -23 -97 -49 -68 -166
-106 -190 -62 -13 25 -71 27 -95 4 -9 -9 -24 -14 -36 -11 -16 4 -15 0 11 -29
16 -19 30 -36 30 -38 0 -2 -11 -1 -25 2 -15 2 -25 0 -25 -7 0 -7 4 -10 9 -7 4
3 19 -3 31 -14 18 -16 21 -26 16 -55 -6 -30 -11 -36 -29 -33 -14 2 -23 11 -25
26 -3 22 -5 22 -16 6 -12 -15 -17 -16 -45 -4 -35 14 -51 37 -51 71 0 12 -3 19
-7 16 -3 -4 -12 1 -19 11 -12 15 -13 15 -14 -10 0 -33 -31 -41 -105 -30 -41 6
-50 11 -48 27 1 19 1 19 -16 -1 -9 -12 -27 -26 -38 -33 -18 -9 -24 -8 -31 5
-8 14 -10 12 -16 -10 -3 -14 -11 -26 -17 -26 -15 0 -1 42 20 60 9 8 20 24 24
34 7 17 5 17 -10 5 -10 -7 -8 -2 5 12 19 21 31 26 73 25 49 -1 49 -1 29 16
-12 9 -28 14 -35 11 -8 -3 -15 0 -15 6 0 6 -14 11 -30 11 -24 0 -35 7 -52 36
-17 30 -25 35 -52 32 -24 -2 -32 -9 -39 -33 -5 -16 -42 -96 -83 -176 -41 -81
-74 -149 -74 -153 0 -3 20 -6 43 -6 50 0 88 -28 65 -48 -9 -7 -19 -6 -32 4
-27 19 -120 19 -136 -2 -8 -8 -62 -56 -122 -105 -59 -50 -108 -94 -108 -98 0
-4 25 -19 55 -34 44 -21 62 -38 91 -84 44 -70 89 -120 126 -139 15 -8 73 -19
129 -26 91 -11 103 -14 117 -37 37 -60 76 -66 124 -20 30 28 36 30 82 23 28
-3 75 -8 106 -9 30 -2 75 -8 100 -13 68 -15 248 -35 263 -29 15 6 177 286 177
305 0 7 18 36 41 64 22 28 50 70 61 92 11 23 51 91 88 151 209 342 223 367
228 428 2 31 0 57 -5 57 -13 0 -53 -30 -53 -39 0 -5 -18 -28 -41 -52 -22 -24
-45 -53 -50 -64 -10 -21 1 -9 58 60 l25 30 -23 -40 c-13 -22 -42 -68 -64 -102
-22 -34 -62 -97 -90 -140 -184 -289 -215 -336 -221 -342 -4 -3 -4 0 1 8 5 9 4
12 -3 7 -6 -4 -8 -14 -5 -23 5 -12 3 -14 -7 -8 -8 5 -11 4 -6 -3 3 -6 -13 -39
-37 -74 -23 -35 -58 -89 -77 -120 -35 -60 -44 -64 -54 -24 -4 18 3 40 24 77
38 64 35 86 -4 30 -16 -23 -30 -41 -32 -41 -2 0 -10 23 -19 52 l-15 52 53 70
c29 39 64 92 78 119 17 33 30 47 45 47 46 0 103 94 86 141 -8 21 4 47 84 184
52 87 94 167 94 177 0 9 6 21 14 25 19 11 105 155 127 214 26 67 25 96 -3 104
-13 4 -33 16 -45 28 -20 17 -31 19 -88 14 -73 -7 -86 3 -78 59 3 19 -1 35 -10
42 -19 16 -74 32 -81 24z m-62 -238 c18 -7 12 -24 -10 -24 -8 0 -14 7 -14 15
0 17 2 18 24 9z m106 -154 c0 -13 -1 -13 -10 0 -5 8 -10 22 -10 30 0 13 1 13
10 0 5 -8 10 -22 10 -30z m-30 -171 c0 -6 -4 -7 -10 -4 -5 3 -10 11 -10 16 0
6 5 7 10 4 6 -3 10 -11 10 -16z m-84 -264 c9 -14 14 -28 10 -32 -3 -3 -6 -2
-6 4 0 6 -9 13 -20 16 -11 3 -20 12 -20 21 0 24 17 19 36 -9z m-546 -165 c0
-5 -4 -10 -10 -10 -5 0 -10 5 -10 10 0 6 5 10 10 10 6 0 10 -4 10 -10z m-253
-122 c-3 -8 -6 -5 -6 6 -1 11 2 17 5 13 3 -3 4 -12 1 -19z m163 -292 c0 -2 -3
-11 -6 -20 -5 -12 -10 -13 -25 -5 -27 14 -24 29 6 29 14 0 25 -2 25 -4z"/>
<path d="M1105 1548 c-11 -6 -31 -20 -45 -32 -13 -12 -20 -14 -15 -6 7 10 4
10 -6 -1 -36 -39 -34 -192 3 -226 32 -29 148 -24 220 9 65 30 82 55 81 120 -1
63 -32 111 -83 132 -46 18 -126 21 -155 4z"/>
<path d="M794 1515 c-93 -60 -128 -142 -84 -197 12 -16 31 -28 45 -28 24 0
138 88 155 120 15 28 30 107 24 124 -11 29 -83 19 -140 -19z"/>
<path d="M1864 1470 c-28 -11 -40 -40 -16 -40 25 0 44 15 40 32 -2 11 -9 13
-24 8z"/>
<path d="M1775 1363 c-61 -86 -98 -137 -123 -172 -13 -17 -21 -31 -18 -31 6 0
175 225 182 244 11 28 0 17 -41 -41z"/>
<path d="M830 1300 c-24 -47 -25 -69 -4 -77 13 -5 13 -8 2 -15 -8 -6 -3 -7 17
-3 17 3 41 7 54 10 41 8 46 21 26 65 -17 39 -40 60 -64 60 -6 0 -20 -18 -31
-40z"/>
<path d="M985 1190 c-3 -6 4 -10 18 -10 14 0 30 -7 37 -15 17 -21 24 -12 10
14 -11 22 -54 29 -65 11z"/>
<path d="M1390 679 c-7 -11 -10 -23 -7 -25 2 -2 9 7 15 21 14 30 7 33 -8 4z"/>
</g>
</svg>
